<svg preserveAspectRatio="none" width="34" height="34" viewBox="0 0 34 34" fill="none" xmlns="http://www.w3.org/2000/svg">
<g clip-path="url(#clip0_1007_12046)">
<path d="M27.6066 14.8785C27.6066 14.8785 26.4328 15.3883 25.6989 15.7992C21.0567 18.3983 21.4285 24.0867 16.7864 26.6858C16.0524 27.0967 14.8787 27.6065 14.8787 27.6065M23.3639 10.6359C23.3639 10.6359 22.1902 11.1456 21.4562 11.5566C16.8141 14.1556 17.1859 19.8441 12.5438 22.4431C11.8098 22.8541 10.636 23.3638 10.636 23.3638M19.1213 6.39325C19.1213 6.39325 17.9476 6.903 17.2136 7.31394C12.5715 9.913 12.9432 15.6014 8.30112 18.2005C7.56713 18.6114 6.39339 19.1212 6.39339 19.1212" stroke="white" stroke-width="2" stroke-linecap="round" stroke-linejoin="round"/>
</g>
<defs>
<clipPath id="clip0_1007_12046">
<rect width="24" height="24" fill="white" transform="translate(0.029541 17) rotate(-45)"/>
</clipPath>
</defs>
</svg>
